<svg version="1.1" xmlns="http://www.w3.org/2000/svg" viewBox="-2.452707341969382 -1.2033951737966855 4.447715026198487 2.3964465456649897" fill="none" stroke="black" stroke-width="0.6%" vector-effect="non-scaling-stroke">
    <path d="M 0.84848 -0.06253 A 0.125 0.09916 276.20353 0 0 0.82147 0.18601" />
    <path d="M 0.89551 0.19289 A 0.125 0.09916 96.20353 0 1 0.882 0.19259 A 0.125 0.09916 96.20353 0 1 0.90901 -0.05595 A 0.125 0.09916 96.20353 0 1 0.89551 0.19289 Z" />
    <path d="M 0.29561 -0.04718 A 0.05 0.03966 276.20353 0 0 0.28481 0.05223 L 0.73923 0.10163" />
    <path d="M 0.27199 -0.11911 A 0.125 0.0754 266.40349 0 1 0.33626 -0.1983 A 0.125 0.0754 266.40349 0 1 0.41728 -0.03395" />
    <path d="M 0.49418 -0.0256 A 0.125 0.0754 86.40349 0 0 0.41586 -0.2033 L 0.33626 -0.1983" />
    <path d="M 0.34096 -0.12345 A 0.05 0.03016 266.40349 0 1 0.36748 -0.03937" />
    <path d="M -0.3723 0.02131 A 0.05 0.03016 266.40349 0 1 -0.37544 -0.07842 A 0.05 0.03016 266.40349 1 1 -0.36916 0.02138 L 0.25473 -0.01783" />
    <path d="M -0.36916 0.02138 A 0.05 0.03016 266.40349 0 1 -0.3723 0.02131" />
    <path d="M -0.74791 0.07607 A 0.05 0.03966 96.20353 0 1 -0.75331 0.07595 L -1.29808 0.01673" />
    <path d="M -0.75331 0.07595 A 0.05 0.03966 96.20353 0 1 -0.74251 -0.02347 L -1.28727 -0.08268 A 0.05 0.03966 276.20353 0 0 -1.29808 0.01673" />
    <path d="M -0.74251 -0.02347 A 0.05 0.03966 96.20353 0 1 -0.74791 0.07607" />
    <path d="M -1.29268 0.0916 A 0.125 0.09916 96.20353 0 1 -1.30618 0.09129 A 0.125 0.09916 96.20353 0 1 -1.27917 -0.15724 A 0.125 0.09916 96.20353 0 1 -1.19692 -0.07286" />
    <path d="M -1.20773 0.02655 A 0.125 0.09916 96.20353 0 1 -1.29268 0.0916" />
    <path d="M -1.3397 -0.16382 A 0.125 0.09916 276.20353 0 0 -1.36671 0.08471 L -1.30618 0.09129" />
    <path d="M 0.90901 -0.05595 L 0.84848 -0.06253" />
    <path d="M 0.882 0.19259 L 0.82147 0.18601" />
    <path d="M 0.29561 -0.04718 L 0.75003 0.00221" />
    <path d="M -0.37544 -0.07842 L 0.34096 -0.12345" />
    <path d="M -1.3397 -0.16382 L -1.27917 -0.15724" />
</svg>