<svg version="1.1" xmlns="http://www.w3.org/2000/svg" viewBox="-1.1735187938571991 -1.8364085873662266 2.416080423815777 3.225081424900724" fill="none" stroke="black" stroke-width="0.6%" vector-effect="non-scaling-stroke">
    <path d="M 0.21718 -0.08392 A 0.125 0.05964 343.97642 0 0 -0.02311 -0.01491" />
    <path d="M 0.12129 0.09653 A 0.125 0.05964 163.97642 0 1 0.00115 0.06955 A 0.125 0.05964 163.97642 0 1 0.24144 0.00055 A 0.125 0.05964 163.97642 0 1 0.12129 0.09653 Z" />
    <path d="M -0.07324 -0.82345 A 0.05 0.02386 343.97642 0 0 -0.16935 -0.79584 L 0.03389 -0.08815" />
    <path d="M -0.06065 -0.25421 A 0.05 0.04354 360 0 1 -0.00948 -0.23918" />
    <path d="M 0.00063 -0.20397 A 0.05 0.04354 360 0 1 -0.09852 -0.21197 A 0.05 0.04354 360 0 1 -0.06065 -0.25421" />
    <path d="M -0.09852 0.23065 A 0.05 0.04354 180 0 0 0.00148 0.23065" />
    <path d="M 0.00148 0.1309 A 0.125 0.10884 360 0 1 0.07648 0.23065 A 0.125 0.10884 360 0 1 -0.17352 0.23065 A 0.125 0.10884 360 0 1 -0.09852 0.1309" />
    <path d="M -0.17352 0.27983 A 0.125 0.10884 180 0 0 0.07648 0.27983 L 0.07648 0.23065" />
    <path d="M 0.24144 0.00055 L 0.21718 -0.08392" />
    <path d="M 0.00115 0.06955 L -0.02311 -0.01491" />
    <path d="M -0.07324 -0.82345 L 0.13 -0.11576" />
    <path d="M -0.09852 -0.21197 L -0.09852 0.23065" />
    <path d="M 0.00148 -0.201 L 0.00148 -0.06647" />
    <path d="M 0.00148 0.07063 L 0.00148 0.23065" />
    <path d="M -0.17352 0.27983 L -0.17352 0.23065" />
</svg>